<svg xmlns="http://www.w3.org/2000/svg" height="1024" preserveAspectRatio="none" style="display: block;" version="1.1" viewBox="0 0 2048 2048" width="1024">
<defs>
	<linearGradient gradientUnits="userSpaceOnUse" id="Gradient1" x1="1461.02" x2="584.996" y1="1181.03" y2="1179.96">
		<stop class="stop0" offset="0" stop-color="rgb(255,255,255)" stop-opacity="1"></stop>
		<stop class="stop1" offset="1" stop-color="rgb(255,255,255)" stop-opacity="1"></stop>
	</linearGradient>
</defs>

<path d="M 1101.07 1109.36 C 1118.46 1096.19 1140.34 1084.57 1158.68 1072.43 C 1210.52 1038.16 1257.2 1008.49 1322.54 1018.9 C 1465.25 1041.62 1514.16 1224.84 1395.98 1311.97 C 1358.93 1339.09 1312.62 1350.37 1267.26 1343.32 C 1216.41 1335.19 1168.45 1297.02 1124.56 1270.83 C 1116.83 1266.22 1087.26 1248.14 1081.1 1243.34 C 1071.51 1239.96 1048.13 1222.3 1037.72 1216.51 L 1036.02 1215.53 C 1050.15 1207.61 1064.44 1198.23 1078.91 1190.06 C 1090.41 1197.91 1106.73 1206.64 1117.26 1214.43 C 1120.69 1215.81 1140.24 1227.89 1144.47 1230.45 C 1159.77 1239.58 1174.96 1248.89 1190.05 1258.37 C 1208.81 1270.2 1230.32 1284.59 1250.86 1292.54 C 1281.95 1304.23 1316.42 1303 1346.59 1289.13 C 1375.92 1275.99 1397.34 1252.39 1408.48 1222.38 C 1419.53 1192.2 1418.11 1158.86 1404.54 1129.72 C 1379.93 1076.82 1314.22 1048.33 1259.07 1067.42 C 1236.67 1075.18 1219.72 1086.73 1199.82 1099.16 L 1146.36 1131.81 C 1136.89 1137.64 1124.11 1147.06 1114.08 1151.53 C 1105.82 1157.87 1085.72 1169.87 1076.16 1175.64 C 1063.41 1183.34 1045.77 1195.05 1033.1 1201.68 C 1017.22 1213.02 995.39 1225.37 978.551 1236.42 C 970.738 1241.55 946.464 1257.33 938.845 1261.15 C 921.849 1272.53 903.444 1283.4 886.108 1294.34 C 852.833 1315.35 829.17 1333.84 789.27 1341.47 C 743.723 1350.18 695.335 1341.5 656.883 1315.23 C 620.681 1290.57 595.82 1252.48 587.819 1209.41 C 571.747 1123.42 633.259 1034.58 719.956 1020.04 C 794.529 1007.54 841.703 1040.46 900.656 1079.08 C 923.699 1094.18 950.079 1107.62 972.413 1123.24 C 984.147 1129.52 1004.46 1142.69 1015.5 1150.45 C 1001.33 1159.05 987.204 1168.34 973.097 1176.79 C 970.978 1175.5 968.792 1174.23 966.837 1172.71 L 878.224 1118.54 C 853.812 1103.45 810.905 1074.3 784.848 1066.42 C 765.543 1060.62 745.044 1060.04 725.443 1064.74 C 694.517 1071.97 666.8 1089.66 650.035 1116.99 C 632.971 1144.6 627.709 1177.91 635.43 1209.44 C 651.724 1275.64 721.083 1314.49 785.941 1296.61 C 823.726 1286.19 854.475 1259.68 888.319 1240.87 C 892.941 1238.31 904.409 1229.98 909.043 1228.52 C 916.935 1222.38 936.52 1211.16 945.869 1205.39 C 969.983 1190.39 994.226 1175.6 1018.6 1161.02 C 1045.73 1145.01 1073.71 1124.66 1101.07 1109.36 z" fill="url(#Gradient1)" transform="translate(0,0)"></path>
<path d="M 972.413 1123.24 C 984.147 1129.52 1004.46 1142.69 1015.5 1150.45 C 1001.33 1159.05 987.204 1168.34 973.097 1176.79 C 970.978 1175.5 968.792 1174.23 966.837 1172.71 C 966.775 1165.11 969.096 1164.2 963.223 1160.73 C 961.384 1158.73 963.088 1153.78 962.244 1151.25 C 958.053 1138.7 966.476 1138.11 975.831 1130.2 C 974.046 1127.1 973.321 1127.15 972.413 1123.24 z" fill="rgb(105,169,146)" transform="translate(0,0)"></path>
<path d="M 1078.91 1190.06 C 1090.41 1197.91 1106.73 1206.64 1117.26 1214.43 C 1111.9 1214.59 1084.65 1195.91 1078.54 1192.11 C 1069.87 1197.99 1052.41 1203.49 1055.13 1214.58 C 1056.22 1219.03 1057.38 1222.17 1058.47 1226.54 C 1059.53 1230.79 1082.04 1239.04 1081.1 1243.34 C 1071.51 1239.96 1048.13 1222.3 1037.72 1216.51 L 1036.02 1215.53 C 1050.15 1207.61 1064.44 1198.23 1078.91 1190.06 z" fill="rgb(201,125,67)" transform="translate(0,0)"></path>
<path d="M 586.984 705.024 L 670.432 704.989 C 728.232 704.978 771.437 702.668 816.625 746.047 C 892.615 818.998 859.055 941.797 760.066 971.864 C 728.465 981.462 701.745 979.309 669.279 979.212 L 585.463 978.925 C 585.213 961.116 585.565 942.769 585.695 924.92 L 585.699 803.611 C 653.345 809.511 646.14 867.846 645.934 917.663 C 673.124 917.74 701.51 918.234 728.646 917.142 C 748.399 916.347 767.59 906.703 780.465 891.491 C 793.622 875.984 799.886 855.783 797.813 835.553 C 796.26 819.448 790.368 804.121 779.474 792.017 C 733.198 740.606 649.125 789.389 607.285 753.083 C 592.714 740.439 588.061 723.545 586.984 705.024 z" fill="rgb(254,254,254)" transform="translate(0,0)"></path>
<path d="M 1168.49 705.025 C 1177.91 704.805 1187.59 704.782 1197.02 704.911 C 1248.54 705.615 1300.57 703.924 1352.04 705.039 C 1382.65 705.481 1411.8 718.212 1432.93 740.369 C 1451.75 760.357 1460.26 784.41 1459.33 811.711 C 1458.61 832.895 1450.81 852.141 1437.64 868.644 C 1376.92 944.743 1274.31 880.875 1229.54 924.042 C 1217.31 935.832 1213.77 950.914 1213.44 967.25 L 1213.59 979.159 L 1167.4 978.934 C 1165.77 967.908 1164.68 958.3 1164.97 947.041 C 1165.46 924.307 1173.37 902.358 1187.51 884.548 C 1247.65 810.199 1352.58 867.997 1387.57 832.868 C 1395.01 825.4 1398.57 815.465 1398.29 805.002 C 1397.28 765.963 1357.09 768.655 1328.97 768.652 L 1264.08 768.821 C 1249.45 768.889 1226.13 769.938 1212.44 766.51 C 1202.54 764.073 1193.46 759.068 1186.11 751.999 C 1172.88 739.028 1168.68 722.907 1168.49 705.025 z" fill="rgb(254,254,254)" transform="translate(0,0)"></path>
<path d="M 1009.53 705.416 C 1016.78 704.362 1043.61 704.873 1052.58 704.871 L 1145.11 705.175 C 1145.04 757.725 1109.82 768.56 1065.97 767.102 C 1024.39 765.72 973.009 760.857 948.618 802.309 C 938.424 819.926 935.537 840.835 940.574 860.556 C 943.151 870.433 948.571 881.235 954.823 889.253 C 995.527 941.45 1061.75 899.118 1112.45 928.317 C 1113.17 928.853 1113.88 929.399 1114.58 929.953 C 1131.34 943.22 1136.2 959.082 1138.54 979.251 L 1060.48 979.123 C 1009.31 979.027 972.197 982.147 928.774 947.473 C 899.903 924.42 881.333 891.598 877.656 854.545 C 874.375 819.048 885.494 783.721 908.515 756.503 C 934.065 725.858 970.229 709.077 1009.53 705.416 z" fill="rgb(254,254,254)" transform="translate(0,0)"></path>
<metadata><recraft-signature>{"signed_by": "recraft", "signature_b64": "UXjX2Twik3GOZzK1bgg38Qp3U/TVTYFFOg3RhtGEURZmvaiv0fXdcITEhyklZtR6iqtzYtSn7cTI7/tOgZggBQ==", "signing_algo": "Ed25519", "generation_timestamp": 1774871169, "identifier": "08ecd1a6-d200-41ed-ab02-c4639c83e1fc"}</recraft-signature></metadata></svg>