<svg width="584" height="339" viewBox="0 0 584 339" fill="none" xmlns="http://www.w3.org/2000/svg">
<g clip-path="url(#clip0_23_561)">
<path d="M89.61 106.76H0V137.93H24.99V232.05H64.62V137.93H89.61V106.76Z" fill="#6400FF"/>
<path d="M142.05 106.76H102.42V232.05H142.05V106.76Z" fill="#6400FF"/>
<path d="M207.28 106.76H167.65V232.05H207.28V106.76Z" fill="#6400FF"/>
<path d="M303.15 101H290.56V97H320V101H307.43V134.59H303.15V101Z" fill="#6400FF"/>
<path d="M331.61 131.59C333.261 131.606 334.896 131.265 336.403 130.59C337.909 129.915 339.253 128.923 340.34 127.68L342.91 129.99C341.526 131.664 339.779 133.001 337.803 133.9C335.826 134.799 333.671 135.237 331.5 135.18C323.89 135.18 317.68 129.34 317.68 120.72C317.68 112.72 323.3 106.25 330.96 106.25C339.16 106.25 343.88 112.79 343.88 120.93C343.885 121.414 343.865 121.898 343.82 122.38H321.82C322.44 128.22 326.73 131.59 331.61 131.59ZM339.7 119.06C339.21 114.06 336.32 109.73 330.86 109.73C326.09 109.73 322.44 113.73 321.86 119.06H339.7Z" fill="#6400FF"/>
<path d="M348.33 120.82V120.72C348.322 117.781 349.212 114.909 350.881 112.49C352.549 110.07 354.917 108.218 357.667 107.18C360.417 106.143 363.418 105.97 366.269 106.685C369.12 107.4 371.684 108.968 373.62 111.18L370.89 114.07C368.69 111.77 366.23 109.9 362.48 109.9C356.85 109.9 352.56 114.66 352.56 120.61V120.72C352.56 126.72 356.96 131.49 362.74 131.49C366.28 131.49 369.01 129.72 371.21 127.36L373.83 129.83C371.05 132.93 367.73 135.18 362.53 135.18C360.652 135.177 358.794 134.803 357.062 134.078C355.33 133.354 353.758 132.294 352.438 130.958C351.118 129.623 350.075 128.04 349.37 126.3C348.665 124.56 348.311 122.697 348.33 120.82Z" fill="#6400FF"/>
<path d="M379.58 97H383.7V111.62C384.632 109.935 386.009 108.539 387.681 107.585C389.353 106.631 391.256 106.155 393.18 106.21C399.88 106.21 403.79 110.71 403.79 117.3V134.5H399.67V118.36C399.67 113.22 396.88 110 392.01 110C387.14 110 383.7 113.48 383.7 118.68V134.54H379.58V97Z" fill="#6400FF"/>
<path d="M411.52 106.84H415.64V111.66C416.571 109.975 417.948 108.579 419.62 107.625C421.293 106.671 423.195 106.195 425.12 106.25C431.82 106.25 435.73 110.75 435.73 117.34V134.54H431.61V118.36C431.61 113.22 428.82 110 423.95 110C419.08 110 415.64 113.48 415.64 118.68V134.54H411.52V106.84Z" fill="#6400FF"/>
<path d="M441.74 120.82V120.72C441.726 116.89 443.233 113.212 445.931 110.493C448.628 107.775 452.296 106.24 456.125 106.225C459.955 106.21 463.634 107.718 466.352 110.415C469.07 113.113 470.606 116.78 470.62 120.61V120.72C470.631 122.627 470.262 124.517 469.536 126.28C468.809 128.043 467.739 129.644 466.388 130.99C465.036 132.336 463.431 133.399 461.665 134.118C459.899 134.838 458.007 135.199 456.1 135.18C454.208 135.203 452.331 134.847 450.578 134.133C448.826 133.42 447.233 132.363 445.895 131.025C444.557 129.687 443.501 128.095 442.787 126.342C442.073 124.59 441.717 122.712 441.74 120.82ZM466.39 120.82V120.72C466.39 114.72 461.94 109.9 456.1 109.9C450.1 109.9 445.97 114.77 445.97 120.61V120.72C445.97 126.66 450.37 131.49 456.21 131.49C462.21 131.49 466.39 126.66 466.39 120.82Z" fill="#6400FF"/>
<path d="M477.38 97H481.51V134.5H477.38V97Z" fill="#6400FF"/>
<path d="M488.31 120.82V120.72C488.295 116.89 489.802 113.212 492.5 110.493C495.198 107.775 498.865 106.24 502.695 106.225C506.524 106.21 510.203 107.718 512.921 110.415C515.64 113.113 517.175 116.78 517.19 120.61V120.72C517.2 122.627 516.832 124.517 516.105 126.28C515.378 128.043 514.308 129.644 512.957 130.99C511.606 132.336 510 133.399 508.234 134.118C506.468 134.838 504.577 135.199 502.67 135.18C500.778 135.203 498.9 134.847 497.147 134.133C495.395 133.42 493.803 132.363 492.465 131.025C491.127 129.687 490.07 128.095 489.356 126.342C488.643 124.59 488.287 122.712 488.31 120.82ZM512.96 120.82V120.72C512.96 114.72 508.51 109.9 502.67 109.9C496.67 109.9 492.55 114.77 492.55 120.61V120.72C492.55 126.66 496.94 131.49 502.78 131.49C508.78 131.49 513 126.66 513 120.82H512.96Z" fill="#6400FF"/>
<path d="M523.26 139.36L525.13 136.15C528.206 138.451 531.947 139.69 535.79 139.68C541.9 139.68 545.87 136.31 545.87 129.83V126.56C543.45 129.77 540.08 132.4 534.99 132.4C533.276 132.424 531.574 132.104 529.986 131.46C528.398 130.815 526.955 129.858 525.743 128.646C524.531 127.434 523.574 125.991 522.93 124.403C522.285 122.815 521.965 121.114 521.99 119.4V119.3C521.994 116.515 522.886 113.804 524.535 111.56C526.184 109.316 528.504 107.655 531.161 106.818C533.817 105.981 536.67 106.012 539.308 106.906C541.945 107.8 544.23 109.511 545.83 111.79V106.79H549.96V129.67C549.96 133.95 548.67 137.22 546.42 139.47C543.96 141.94 540.26 143.17 535.87 143.17C531.373 143.237 526.967 141.905 523.26 139.36ZM545.97 119.36V119.25C545.97 113.57 541.04 109.88 535.79 109.88C530.54 109.88 526.2 113.52 526.2 119.2V119.31C526.193 120.563 526.437 121.805 526.919 122.963C527.4 124.12 528.109 125.169 529.003 126.047C529.898 126.925 530.959 127.615 532.125 128.076C533.29 128.537 534.536 128.759 535.79 128.73C541 128.75 546 125 546 119.38L545.97 119.36Z" fill="#6400FF"/>
<path d="M556.48 141.88L557.87 138.61C559.204 139.317 560.701 139.661 562.21 139.61C564.68 139.61 566.21 138.32 567.89 134.41L555.3 106.84H559.86L569.93 129.93L578.82 106.84H583.22L571.59 135.45C569.23 141.18 566.59 143.27 562.38 143.27C560.329 143.293 558.304 142.816 556.48 141.88Z" fill="#6400FF"/>
<path d="M302.6 145.76H306.83V183.26H302.6V145.76Z" fill="#6400FF"/>
<path d="M316.05 155.56H320.18V160.38C321.11 158.694 322.488 157.298 324.16 156.343C325.832 155.389 327.735 154.914 329.66 154.97C336.36 154.97 340.27 159.47 340.27 166.06V183.26H336.14V167.08C336.14 161.94 333.36 158.72 328.48 158.72C323.6 158.72 320.18 162.2 320.18 167.4V183.26H316.05V155.56Z" fill="#6400FF"/>
<path d="M348 155.56H352.13V160.38C353.064 158.702 354.441 157.312 356.111 156.363C357.781 155.414 359.68 154.943 361.6 155C368.3 155 372.21 159.5 372.21 166.09V183.29H368.08V167.08C368.08 161.94 365.3 158.72 360.42 158.72C355.54 158.72 352.12 162.2 352.12 167.4V183.26H348V155.56Z" fill="#6400FF"/>
<path d="M378.22 169.55V169.44C378.205 165.61 379.712 161.932 382.41 159.213C385.108 156.495 388.775 154.96 392.605 154.945C396.434 154.93 400.113 156.438 402.831 159.135C405.55 161.833 407.085 165.5 407.1 169.33V169.44C407.11 171.347 406.742 173.237 406.015 175C405.288 176.763 404.218 178.364 402.867 179.71C401.516 181.055 399.91 182.119 398.144 182.838C396.378 183.558 394.487 183.919 392.58 183.9C390.688 183.923 388.812 183.567 387.06 182.854C385.308 182.141 383.716 181.085 382.378 179.748C381.041 178.411 379.983 176.82 379.269 175.069C378.555 173.318 378.198 171.441 378.22 169.55ZM402.87 169.55V169.44C402.87 163.49 398.42 158.62 392.58 158.62C386.58 158.62 382.45 163.49 382.45 169.33V169.44C382.45 175.38 386.85 180.21 392.69 180.21C398.69 180.21 402.87 175.38 402.87 169.55Z" fill="#6400FF"/>
<path d="M409.14 155.56H413.7L423.02 178.56L432.4 155.56H436.84L424.84 183.48H421.19L409.14 155.56Z" fill="#6400FF"/>
<path d="M438.84 175.22V175.12C438.84 169.12 443.66 166.06 450.68 166.06C453.543 166.031 456.394 166.429 459.14 167.24V166.38C459.14 161.46 456.14 158.88 450.95 158.88C448.028 158.901 445.149 159.585 442.53 160.88L441.3 157.5C444.434 155.95 447.883 155.142 451.38 155.14C455.29 155.14 458.38 156.21 460.32 158.2C462.26 160.19 463.22 162.8 463.22 166.34V183.27H459.14V179.15C457.964 180.67 456.445 181.889 454.706 182.708C452.968 183.527 451.06 183.921 449.14 183.86C444 183.85 438.84 180.9 438.84 175.22ZM459.2 173.08V170.51C456.574 169.73 453.849 169.332 451.11 169.33C445.96 169.33 443.02 171.58 443.02 174.9V175C443.02 178.48 446.23 180.52 450.02 180.52C455.07 180.53 459.2 177.47 459.2 173.08Z" fill="#6400FF"/>
<path d="M472.07 175.92V159.21H468.21V155.56H472.07V147.2H476.19V155.56H485V159.21H476.21V175.38C476.21 178.76 478.09 179.99 480.88 179.99C482.274 179.982 483.646 179.639 484.88 178.99V182.52C483.339 183.327 481.619 183.733 479.88 183.7C475.45 183.74 472.07 181.55 472.07 175.92Z" fill="#6400FF"/>
<path d="M491.31 147.53H496V152.09H491.29L491.31 147.53ZM491.58 155.53H495.7V183.23H491.58V155.53Z" fill="#6400FF"/>
<path d="M502.51 169.55V169.44C502.495 165.61 504.003 161.932 506.7 159.213C509.398 156.495 513.065 154.96 516.895 154.945C520.725 154.93 524.403 156.438 527.122 159.135C529.84 161.833 531.375 165.5 531.39 169.33V169.44C531.401 171.347 531.032 173.237 530.305 175C529.579 176.763 528.508 178.364 527.157 179.71C525.806 181.055 524.201 182.119 522.434 182.838C520.668 183.558 518.777 183.919 516.87 183.9C514.978 183.924 513.101 183.569 511.348 182.857C509.596 182.145 508.004 181.089 506.665 179.751C505.327 178.414 504.27 176.823 503.557 175.071C502.843 173.319 502.487 171.442 502.51 169.55ZM527.16 169.55V169.44C527.16 163.49 522.71 158.62 516.87 158.62C510.87 158.62 506.74 163.49 506.74 169.33V169.44C506.74 175.38 511.13 180.21 516.98 180.21C522.83 180.21 527.16 175.38 527.16 169.55Z" fill="#6400FF"/>
<path d="M537.77 155.56H541.9V160.38C542.83 158.694 544.207 157.298 545.88 156.343C547.552 155.389 549.455 154.914 551.38 154.97C558.08 154.97 561.99 159.47 561.99 166.06V183.26H557.859V167.08C557.859 161.94 555.08 158.72 550.2 158.72C545.32 158.72 541.9 162.2 541.9 167.4V183.26H537.77V155.56Z" fill="#6400FF"/>
<path d="M302.6 194.48H306.83V232H302.6V194.48Z" fill="#6400FF"/>
<path d="M316.05 204.28H320.18V209.1C321.11 207.414 322.488 206.018 324.16 205.063C325.832 204.109 327.735 203.634 329.66 203.69C336.36 203.69 340.27 208.19 340.27 214.78V232H336.14V215.8C336.14 210.66 333.36 207.44 328.48 207.44C323.6 207.44 320.18 210.92 320.18 216.12V232H316.05V204.28Z" fill="#6400FF"/>
<path d="M345.69 228.44L347.78 225.5C350.512 227.682 353.876 228.92 357.37 229.03C360.69 229.03 363.1 227.32 363.1 224.64V224.53C363.1 221.75 359.84 220.68 356.19 219.66C351.85 218.43 347.03 216.93 347.03 211.84V211.73C347.03 206.96 351.03 203.8 356.46 203.8C360.008 203.847 363.473 204.886 366.46 206.8L364.55 210C362.122 208.357 359.281 207.429 356.35 207.32C353.09 207.32 351 209.04 351 211.32V211.43C351 214.05 354.42 215.07 358.12 216.2C362.41 217.48 367.01 219.14 367.01 224.12V224.23C367.01 229.48 362.67 232.54 357.16 232.54C352.991 232.465 348.962 231.025 345.69 228.44Z" fill="#6400FF"/>
<path d="M374.52 224.64V207.93H370.66V204.28H374.52V195.92H378.65V204.28H387.43V207.93H378.65V224.1C378.65 227.48 380.52 228.71 383.31 228.71C384.704 228.699 386.075 228.356 387.31 227.71V231.25C385.765 232.046 384.048 232.448 382.31 232.42C377.9 232.46 374.52 230.27 374.52 224.64Z" fill="#6400FF"/>
<path d="M393.76 195.92H398.48V200.48H393.76V195.92ZM394.03 204.28H398.15V232H394L394.03 204.28Z" fill="#6400FF"/>
<path d="M408.12 224.64V207.93H404.27V204.28H408.12V195.92H412.25V204.28H421V207.93H412.21V224.1C412.21 227.48 414.08 228.71 416.87 228.71C418.263 228.699 419.635 228.356 420.87 227.71V231.25C419.325 232.047 417.607 232.449 415.87 232.42C411.5 232.46 408.12 230.27 408.12 224.64Z" fill="#6400FF"/>
<path d="M426.83 221.48V204.28H431V220.46C431 225.61 433.79 228.82 438.66 228.82C443.38 228.82 446.97 225.34 446.97 220.14V204.28H451V232H446.93V227.18C445.991 228.86 444.611 230.253 442.938 231.206C441.266 232.159 439.365 232.638 437.44 232.59C430.74 232.57 426.83 228.07 426.83 221.48Z" fill="#6400FF"/>
<path d="M460.64 224.64V207.93H456.79V204.28H460.64V195.92H464.77V204.28H473.56V207.93H464.77V224.1C464.77 227.48 466.64 228.71 469.43 228.71C470.824 228.699 472.195 228.356 473.43 227.71V231.25C471.886 232.047 470.168 232.449 468.43 232.42C464 232.46 460.64 230.27 460.64 224.64Z" fill="#6400FF"/>
<path d="M491.19 229C492.842 229.017 494.479 228.676 495.988 228.001C497.496 227.327 498.841 226.333 499.93 225.09L502.5 227.4C501.116 229.074 499.37 230.411 497.393 231.31C495.416 232.209 493.261 232.647 491.09 232.59C483.48 232.59 477.26 226.75 477.26 218.13C477.26 210.13 482.89 203.66 490.55 203.66C498.75 203.66 503.46 210.2 503.46 218.34C503.46 218.72 503.46 219.15 503.46 219.79H481.46C482 225.66 486.32 229 491.19 229ZM499.28 216.47C498.8 211.47 495.91 207.15 490.44 207.15C485.67 207.15 482.03 211.15 481.44 216.47H499.28Z" fill="#6400FF"/>
<path d="M102.36 338.81V323.92C144.85 323.92 181.59 308.69 211.57 278.63C241.55 248.57 256.87 211.89 256.87 169.41C256.87 126.93 241.63 90.25 211.58 60.19C181.53 30.13 144.77 14.89 102.36 14.89V0C148.86 0 189.15 16.71 222.1 49.66C255.05 82.61 271.75 122.9 271.75 169.41C271.75 215.92 255.05 256.29 222.09 289.16C189.13 322.03 148.94 338.81 102.36 338.81Z" fill="#6400FF"/>
</g>
<defs>
<clipPath id="clip0_23_561">
<rect width="583.22" height="338.81" fill="white"/>
</clipPath>
</defs>
</svg>
